<?xml version="1.0" encoding="utf-8"?>
<!-- Generator: Adobe Illustrator 22.0.1, SVG Export Plug-In . SVG Version: 6.00 Build 0)  -->
<svg version="1.1" id="Layer_1" xmlns="http://www.w3.org/2000/svg" xmlns:xlink="http://www.w3.org/1999/xlink" x="0px" y="0px"
	 viewBox="0 0 779.6 593.2" style="enable-background:new 0 0 779.6 593.2;" xml:space="preserve">
<style type="text/css">
	.st0{fill:#FFFFFF;}
	.st1{fill:#3EA7DB;}
	.st2{fill:#E4F1F9;}
</style>
<path class="st0" d="M530,123.3c-2-5.3-4.6-10.4-7.7-15.2L537,91.8c-8.4-11.3-19.1-20.7-31.3-27.6l-16,15.9
	c-5.2-2.4-10.6-4.2-16.2-5.3l-1.2-21.9c-13.9-2.1-28.1-1.2-41.7,2.6l-0.1,22.5c-5.3,2-10.5,4.6-15.2,7.7l-16.3-14.7
	c-11.3,8.4-20.7,19.1-27.6,31.3l15.8,16c-2.4,5.2-4.2,10.6-5.3,16.2l-21.9,1.2c-2.1,13.9-1.2,28.1,2.6,41.7l22.5,0.1
	c2,5.3,4.6,10.4,7.7,15.2L378,209c8.4,11.3,19,20.7,31.3,27.6l16-15.8c5.2,2.4,10.6,4.2,16.2,5.3l1.2,21.9
	c13.9,2.1,28.1,1.2,41.7-2.6l0.1-22.5c5.3-2,10.4-4.6,15.2-7.7l16.4,14.6c11.3-8.4,20.7-19.1,27.6-31.3l-15.8-16
	c2.4-5.2,4.2-10.6,5.3-16.2l21.9-1.2c2.1-13.9,1.2-28.1-2.6-41.7L530,123.3z M480.1,170.4c-11,12.5-30.1,13.7-42.6,2.7
	s-13.7-30.1-2.7-42.6s30.1-13.7,42.6-2.7c0,0,0,0,0,0C489.9,138.8,491.2,157.8,480.1,170.4L480.1,170.4z"/>
<path class="st1" d="M478.5,126.6c-13.1-11.6-33.2-10.3-44.8,2.8c-11.6,13.1-10.3,33.2,2.8,44.8c5.8,5.1,13.2,7.9,20.9,7.9
	c0.7,0,1.4,0,2-0.1c17.5-1.1,30.8-16.2,29.7-33.7C488.6,140,484.8,132.1,478.5,126.6L478.5,126.6z M479,169.3
	c-10.5,11.8-28.5,13-40.4,2.5c-11.8-10.5-13-28.5-2.5-40.4c10.5-11.8,28.5-13,40.4-2.5l0,0C488.3,139.4,489.4,157.4,479,169.3
	L479,169.3z"/>
<path class="st1" d="M552.5,121.9l-21.4-0.1c-1.8-4.7-4.1-9.2-6.8-13.5l13.9-15.5c0.5-0.6,0.6-1.4,0.1-2
	c-8.5-11.5-19.3-21.1-31.8-28.1c-0.6-0.3-1.4-0.2-1.9,0.3l-15.2,15.1c-4.6-2-9.4-3.6-14.3-4.7l-1.1-20.7c0-0.7-0.6-1.3-1.3-1.5
	c-14.1-2.1-28.6-1.2-42.4,2.7c-0.7,0.2-1.2,0.8-1.2,1.5l-0.1,21.4c-4.7,1.8-9.2,4.1-13.5,6.8l-15.4-13.9c-0.6-0.5-1.4-0.6-2-0.1
	c-11.5,8.5-21.1,19.3-28.1,31.8c-0.3,0.6-0.2,1.4,0.3,1.9l15.1,15.2c-2,4.6-3.6,9.4-4.7,14.4l-20.7,1.1c-0.7,0-1.4,0.6-1.5,1.3
	c-2.1,14.2-1.2,28.6,2.7,42.4c0.2,0.7,0.8,1.1,1.5,1.1l21.4,0.1c1.8,4.7,4.1,9.2,6.8,13.5l-13.9,15.5c-0.5,0.6-0.6,1.4-0.1,2
	c8.5,11.5,19.3,21.1,31.8,28.1c0.6,0.3,1.4,0.2,1.9-0.3l15.2-15.1c4.6,2,9.4,3.6,14.3,4.7l1.1,20.7c0,0.7,0.6,1.3,1.3,1.4
	c4.9,0.7,9.9,1.1,14.9,1.1c9.3,0,18.5-1.3,27.5-3.8c0.7-0.2,1.1-0.8,1.1-1.5l0.1-21.4c4.7-1.8,9.2-4.1,13.5-6.8L515,231
	c0.6,0.5,1.4,0.6,2,0.1c11.5-8.5,21.1-19.4,28.1-31.8c0.3-0.6,0.2-1.4-0.2-1.9l-15.1-15.2c2-4.6,3.6-9.4,4.7-14.4l20.7-1.1
	c0.7,0,1.3-0.6,1.5-1.3c2.1-14.2,1.2-28.6-2.7-42.4C553.8,122.3,553.2,121.9,552.5,121.9z M553.8,163.7l-20.7,1.1
	c-0.7,0-1.3,0.5-1.4,1.2c-1.1,5.5-2.9,10.8-5.2,15.9c-0.3,0.6-0.1,1.3,0.3,1.7l15,15.1c-6.5,11.3-15.2,21.2-25.6,29.1l-15.4-13.8
	c-0.5-0.5-1.3-0.5-1.9-0.1c-4.7,3-9.7,5.6-14.9,7.5c-0.6,0.2-1,0.8-1,1.5l-0.1,21.3c-12.6,3.4-25.7,4.2-38.7,2.4l-1.2-20.7
	c0-0.7-0.5-1.3-1.2-1.4c-5.5-1.2-10.8-2.9-15.8-5.2c-0.6-0.3-1.3-0.1-1.7,0.3l-15.1,15c-11.3-6.5-21.2-15.2-29.1-25.6l13.8-15.4
	c0.5-0.5,0.5-1.3,0.1-1.9c-3-4.7-5.6-9.7-7.5-14.9c-0.2-0.6-0.8-1-1.5-1l-21.3-0.1c-3.4-12.6-4.2-25.7-2.5-38.6l20.6-1.1
	c0.7,0,1.3-0.6,1.4-1.2c1.1-5.5,2.9-10.8,5.2-15.9c0.3-0.6,0.1-1.3-0.3-1.7l-15-15.2c6.5-11.3,15.2-21.2,25.6-29.1l15.4,13.8
	c0.5,0.5,1.3,0.5,1.9,0.2c4.7-3.1,9.7-5.6,14.9-7.5c0.6-0.2,1-0.8,1-1.5l0.1-21.3c12.6-3.4,25.7-4.2,38.6-2.5l1.1,20.6
	c0,0.7,0.5,1.3,1.2,1.4c5.5,1.1,10.8,2.9,15.9,5.2c0.6,0.3,1.3,0.1,1.7-0.3l15.1-15c11.3,6.5,21.2,15.2,29.1,25.6l-13.8,15.4
	c-0.5,0.5-0.6,1.3-0.2,1.9c3.1,4.7,5.6,9.7,7.5,14.9c0.2,0.6,0.8,1,1.5,1l21.3,0.1C554.7,137.6,555.5,150.7,553.8,163.7z"/>
<path class="st0" d="M242.1,139.7c-0.4-1.3-0.9-2.5-1.5-3.6l5.9-7.6c-2.2-3.1-4.9-5.7-8-7.8l-7.4,6.1c-1.2-0.6-2.4-1.1-3.6-1.5
	l-1.1-9.5c-1.8-0.3-3.7-0.5-5.6-0.5c-1.9,0-3.7,0.2-5.6,0.5l-0.9,9.5c-1.3,0.4-2.5,0.9-3.6,1.5l-7.6-5.9c-3.1,2.2-5.7,4.8-7.9,7.9
	l6.1,7.4c-0.6,1.2-1.1,2.4-1.5,3.6l-9.6,1.1c-0.6,3.7-0.6,7.5,0.1,11.2l9.5,0.9c0.4,1.3,0.9,2.5,1.5,3.6l-5.9,7.6
	c2.2,3.1,4.9,5.7,7.9,7.8l7.4-6.1c1.2,0.6,2.4,1.1,3.6,1.5l1.1,9.5c1.8,0.3,3.7,0.5,5.6,0.5c1.9,0,3.7-0.2,5.6-0.5l0.9-9.5
	c1.3-0.4,2.5-0.9,3.6-1.5l7.6,5.9c3.1-2.2,5.7-4.9,7.9-7.9l-6.1-7.4c0.6-1.2,1.1-2.4,1.5-3.6l9.5-1.1c0.3-1.8,0.5-3.7,0.5-5.6
	c0-1.9-0.2-3.7-0.5-5.6L242.1,139.7z M221.1,159.1c-7,0-12.7-5.6-12.8-12.6c0-7,5.6-12.7,12.6-12.8c7,0,12.7,5.6,12.8,12.6
	C233.7,153.3,228.1,159,221.1,159.1C221.1,159.1,221.1,159.1,221.1,159.1L221.1,159.1z"/>
<path class="st1" d="M251.8,139.1l-8.5-0.8c-0.2-0.7-0.5-1.3-0.8-2l5.3-6.8c0.4-0.6,0.4-1.3,0-1.9c-2.3-3.2-5.1-6-8.3-8.2
	c-0.6-0.4-1.3-0.4-1.9,0.1l-6.5,5.4c-0.7-0.3-1.3-0.6-2-0.8l-1-8.6c-0.1-0.7-0.6-1.2-1.3-1.3c-1.9-0.3-3.9-0.5-5.9-0.5
	c-2,0-3.9,0.2-5.9,0.6c-0.7,0.1-1.2,0.7-1.3,1.4l-0.8,8.5c-0.7,0.2-1.3,0.5-2,0.8l-6.9-5.3c-0.6-0.4-1.3-0.4-1.9,0
	c-3.2,2.3-6,5.1-8.2,8.3c-0.4,0.6-0.4,1.3,0.1,1.9l5.4,6.6c-0.3,0.7-0.6,1.3-0.8,2l-8.6,1c-0.7,0.1-1.2,0.6-1.4,1.3
	c-0.3,1.9-0.5,3.9-0.5,5.9c0,2,0.2,3.9,0.6,5.8c0.1,0.7,0.7,1.2,1.4,1.3l8.5,0.8c0.2,0.7,0.5,1.3,0.8,2l-5.3,6.8
	c-0.4,0.5-0.4,1.3-0.1,1.9c2.3,3.2,5.1,6,8.4,8.2c0.6,0.4,1.3,0.4,1.9-0.1l6.6-5.4c0.7,0.3,1.3,0.6,2,0.8l1,8.6
	c0.1,0.7,0.6,1.2,1.3,1.4c1.9,0.3,3.7,0.5,5.6,0.5h0.2c2,0,3.9-0.2,5.8-0.6c0.7-0.1,1.2-0.7,1.3-1.4l0.9-8.5c0.7-0.2,1.3-0.5,2-0.8
	l6.8,5.3c0.6,0.4,1.3,0.4,1.9,0c3.2-2.3,6-5.1,8.2-8.3c0.4-0.6,0.4-1.3,0-1.9l-5.4-6.6c0.3-0.7,0.6-1.3,0.8-2l8.6-1
	c0.7-0.1,1.2-0.6,1.4-1.3c0.3-1.9,0.5-3.9,0.5-5.9c0-2-0.2-3.9-0.6-5.9C253.1,139.7,252.5,139.1,251.8,139.1z M250.4,150.4l-8.4,1
	c-0.6,0.1-1.1,0.5-1.3,1.1c-0.4,1.2-0.8,2.3-1.4,3.4c-0.3,0.6-0.2,1.2,0.2,1.7l5.3,6.5c-1.6,2.2-3.6,4.2-5.8,5.9l-6.6-5.2
	c-0.5-0.4-1.2-0.4-1.7-0.1c-1.1,0.6-2.2,1.1-3.4,1.4c-0.6,0.2-1,0.7-1.1,1.3l-0.8,8.3c-1.4,0.2-2.8,0.3-4.1,0.3
	c-1.4,0-2.8-0.1-4.2-0.3l-1-8.4c-0.1-0.6-0.5-1.1-1.1-1.3c-1.2-0.4-2.3-0.8-3.4-1.4c-0.6-0.3-1.2-0.2-1.7,0.2l-6.5,5.3
	c-2.2-1.7-4.2-3.6-5.9-5.8l5.2-6.6c0.4-0.5,0.4-1.2,0.1-1.7c-0.6-1.1-1.1-2.2-1.4-3.4c-0.2-0.6-0.8-1.1-1.4-1.1l-8.3-0.8
	c-0.2-1.4-0.3-2.8-0.3-4.1c0-1.4,0.1-2.8,0.3-4.2l8.4-1c0.6-0.1,1.1-0.5,1.3-1.1c0.4-1.2,0.8-2.3,1.4-3.4c0.3-0.6,0.2-1.2-0.2-1.7
	l-5.3-6.5c1.7-2.2,3.6-4.2,5.9-5.9l6.6,5.2c0.5,0.4,1.2,0.4,1.7,0.1c1.1-0.6,2.2-1,3.4-1.4c0.6-0.2,1-0.7,1.1-1.3l0.8-8.3
	c1.4-0.2,2.8-0.3,4.1-0.3c1.4,0,2.8,0.1,4.2,0.3l1,8.4c0.1,0.6,0.5,1.1,1.1,1.3c1.2,0.4,2.3,0.8,3.4,1.4c0.6,0.3,1.2,0.2,1.7-0.2
	l6.5-5.3c2.2,1.7,4.2,3.6,5.9,5.9l-5.2,6.6c-0.4,0.5-0.4,1.2-0.1,1.7c0.6,1.1,1.1,2.2,1.4,3.4c0.2,0.6,0.7,1,1.3,1.1l8.3,0.8
	c0.2,1.4,0.3,2.8,0.3,4.1C250.6,147.6,250.5,149,250.4,150.4z"/>
<path class="st1" d="M220.9,132.2c-7.9,0.2-14,6.8-13.8,14.6c0.2,7.6,6.3,13.6,13.9,13.8h0.1c7.9,0.1,14.3-6.1,14.5-14
	s-6.1-14.3-14-14.5C221.4,132.2,221.1,132.2,220.9,132.2L220.9,132.2z M228.9,154.2c-2.1,2.1-4.9,3.3-7.8,3.3H221
	c-6.1,0-11.1-4.9-11.2-11.1c0-6.1,4.9-11.1,11.1-11.2l0,0c6.1,0,11.1,4.9,11.2,11C232.1,149.3,231,152.1,228.9,154.2L228.9,154.2z"
	/>
<path class="st0" d="M355.9,95.7l12.9-8.9c-1.9-6-4.9-11.5-8.7-16.4l-14.5,5.8c-1.6-1.6-3.4-3.1-5.3-4.4l2.9-15.4
	c-2.8-1.4-5.7-2.6-8.7-3.5c-3-0.9-6-1.5-9.1-1.9l-6.1,14.4c-2.3,0-4.6,0.2-6.9,0.7l-8.9-12.9c-6,1.9-11.5,4.9-16.4,8.7l5.8,14.5
	c-1.6,1.6-3.1,3.4-4.4,5.3l-15.4-2.9c-1.4,2.8-2.6,5.7-3.5,8.7c-0.9,3-1.6,6-1.9,9.1l14.4,6.1c0,2.3,0.2,4.6,0.6,6.9l-12.9,8.9
	c1.9,6,4.9,11.5,8.7,16.4L293,129c1.6,1.6,3.4,3.1,5.3,4.4l-2.9,15.4c5.6,2.9,11.6,4.7,17.8,5.4l6.1-14.4c2.3,0,4.6-0.2,6.9-0.6
	l8.9,12.9c6-1.9,11.5-4.9,16.4-8.7l-5.8-14.5c1.6-1.6,3.1-3.4,4.4-5.3l15.4,2.9c2.9-5.6,4.7-11.6,5.5-17.8l-14.4-6.1
	C356.5,100.3,356.3,98,355.9,95.7z M339.5,108.8c-3.4,11.2-15.2,17.4-26.4,14c-11.2-3.4-17.4-15.2-14-26.4
	c3.4-11.2,15.2-17.4,26.4-14c0,0,0,0,0,0C336.6,85.8,342.9,97.6,339.5,108.8z"/>
<path class="st1" d="M325.9,80.9L325.9,80.9c-12-3.7-24.7,3-28.3,15s3,24.7,15,28.3c2.2,0.7,4.4,1,6.7,1c12.5,0,22.7-10.1,22.7-22.6
	C342,92.7,335.5,83.8,325.9,80.9z M338,108.3c-3.1,10.4-14.1,16.2-24.4,13.1c-10.4-3.1-16.2-14.1-13.1-24.4
	c3.1-10.4,14.1-16.2,24.4-13.1c0,0,0.1,0,0.1,0l0,0C335.3,87.1,341.1,98,338,108.3z"/>
<path class="st1" d="M371.5,107.2l-13.5-5.7c-0.1-1.7-0.2-3.4-0.5-5.1l12.1-8.3c0.6-0.4,0.8-1.1,0.6-1.8c-2-6.1-5-11.9-9-16.9
	c-0.4-0.5-1.2-0.7-1.8-0.5L346,74.4c-1.3-1.2-2.6-2.3-4-3.3l2.7-14.4c0.1-0.7-0.2-1.4-0.8-1.7c-2.8-1.5-5.8-2.7-8.9-3.6
	c-3.1-0.9-6.2-1.6-9.4-2c-0.7-0.1-1.3,0.3-1.6,0.9l-5.7,13.5c-1.7,0-3.4,0.2-5.1,0.5l-8.3-12.1c-0.4-0.6-1.1-0.8-1.8-0.6
	c-6.1,2-11.9,5-16.9,9c-0.5,0.4-0.7,1.2-0.5,1.8l5.4,13.6c-1.2,1.3-2.3,2.6-3.3,4l-14.4-2.7c-0.7-0.1-1.4,0.2-1.7,0.8
	c-2.9,5.7-4.8,11.9-5.6,18.3c-0.1,0.7,0.3,1.3,0.9,1.6l13.5,5.7c0,1.7,0.2,3.4,0.5,5.1l-12.1,8.3c-0.6,0.4-0.8,1.1-0.6,1.8
	c2,6.1,5,11.9,9,16.9c0.4,0.5,1.2,0.7,1.8,0.5l13.5-5.5c1.3,1.2,2.6,2.3,4,3.3l-2.7,14.4c-0.1,0.7,0.2,1.4,0.8,1.7
	c5.7,2.9,11.9,4.8,18.3,5.6h0.2c0.6,0,1.2-0.4,1.4-0.9l5.7-13.5c1.7,0,3.4-0.2,5.1-0.5l8.3,12.1c0.4,0.6,1.1,0.8,1.8,0.6
	c6.1-2,11.9-5,16.9-9c0.5-0.4,0.7-1.2,0.5-1.8l-5.5-13.6c1.2-1.2,2.3-2.6,3.3-3.9l14.4,2.6c0.7,0.1,1.4-0.2,1.7-0.8
	c1.5-2.9,2.7-5.8,3.6-8.9c0.9-3.1,1.6-6.2,2-9.4C372.6,108.2,372.2,107.5,371.5,107.2z M367.5,117.3c-0.8,2.5-1.7,5-2.9,7.4
	l-14.3-2.7c-0.6-0.1-1.2,0.1-1.6,0.7c-1.2,1.8-2.7,3.5-4.2,5.1c-0.4,0.4-0.6,1.1-0.4,1.7l5.4,13.4c-4.2,3.2-8.9,5.7-13.9,7.4
	l-8.2-12c-0.4-0.5-1-0.8-1.6-0.6c-2.2,0.4-4.4,0.6-6.6,0.6c-0.6,0-1.2,0.4-1.4,0.9l-5.6,13.3c-5.2-0.8-10.3-2.3-15.1-4.6l2.7-14.3
	c0.1-0.6-0.1-1.2-0.6-1.6c-1.8-1.2-3.5-2.6-5.1-4.2c-0.4-0.4-1.1-0.6-1.7-0.3l-13.5,5.4c-3.2-4.2-5.6-8.9-7.4-13.9l12-8.2
	c0.5-0.4,0.8-1,0.6-1.6c-0.4-2.2-0.6-4.4-0.6-6.6c0-0.6-0.4-1.2-1-1.4l-13.3-5.7c0.7-5.2,2.3-10.3,4.6-15.1l14.3,2.7
	c0.6,0.1,1.2-0.1,1.6-0.7c1.2-1.8,2.7-3.5,4.2-5.1c0.4-0.4,0.6-1.1,0.3-1.7L289,62.3c4.2-3.2,8.9-5.7,13.9-7.4l8.2,12
	c0.4,0.5,1,0.8,1.6,0.7c2.2-0.4,4.4-0.6,6.6-0.6c0.6,0,1.2-0.4,1.4-1l5.7-13.3c2.6,0.4,5.2,1,7.7,1.7c2.5,0.8,5,1.7,7.4,2.9
	l-2.7,14.3c-0.1,0.6,0.1,1.2,0.7,1.6c1.8,1.2,3.5,2.6,5.1,4.2c0.4,0.4,1.1,0.6,1.7,0.3l13.4-5.4c3.2,4.2,5.7,8.9,7.4,13.9l-12,8.2
	c-0.5,0.4-0.8,1-0.6,1.6c0.4,2.2,0.6,4.4,0.6,6.6c0,0.6,0.4,1.2,1,1.4l13.3,5.7C368.9,112.3,368.3,114.8,367.5,117.3L367.5,117.3z"
	/>
<path class="st0" d="M714.2,124.5l-13.4,0.5c-1.3-3.1-3-6.1-4.9-8.9l8.3-10.1c-5.2-6.6-11.8-11.9-19.3-15.7l-9.1,9.8
	c-3.1-1.3-6.4-2.2-9.8-2.8l-1.2-13c-8.3-0.9-16.8,0-24.8,2.6l0.5,13.4c-3.1,1.3-6.1,3-8.9,4.9l-10.1-8.3
	c-6.6,5.2-11.9,11.8-15.7,19.3l9.8,9.2c-1.3,3.1-2.2,6.4-2.8,9.8l-13,1.2c-0.9,8.3-0.1,16.8,2.5,24.8l13.4-0.5
	c1.3,3.1,3,6.1,4.9,8.9l-8.3,10.1c5.2,6.5,11.8,11.9,19.3,15.7l9.2-9.8c3.1,1.3,6.4,2.2,9.8,2.8l1.2,13c8.3,0.9,16.8,0.1,24.8-2.5
	l-0.5-13.4c3.1-1.3,6.1-3,8.9-4.9l10,8.4c6.6-5.2,11.9-11.8,15.7-19.3l-9.8-9.1c1.3-3.1,2.2-6.4,2.8-9.8l13-1.2
	C717.6,141,716.8,132.5,714.2,124.5L714.2,124.5z M660.1,160.7c-9.9,1-18.7-6.2-19.7-16.1c-1-9.9,6.2-18.7,16.1-19.7
	c9.9-1,18.7,6.2,19.7,16.1c0,0,0,0,0,0.1C677.1,150.9,670,159.7,660.1,160.7z"/>
<path class="st1" d="M656.3,123.3c-10.7,1.1-18.6,10.7-17.5,21.4c1.1,10.7,10.7,18.6,21.4,17.5c10.7-1.1,18.6-10.7,17.5-21.4
	C676.6,130.1,667,122.3,656.3,123.3z M671,153.2c-5.7,7-16.1,8.1-23.1,2.4c-7-5.7-8.1-16.1-2.4-23.1c5.7-7,16.1-8.1,23.1-2.4
	c3.4,2.8,5.5,6.8,6,11.1C675,145.5,673.7,149.8,671,153.2z"/>
<path class="st1" d="M715.7,124.1c-0.2-0.7-0.8-1.1-1.5-1.1l-12.3,0.4c-1.1-2.5-2.5-4.9-4-7.2l7.6-9.2c0.5-0.6,0.5-1.4,0-2
	c-5.4-6.7-12.2-12.2-19.8-16.1c-0.6-0.3-1.4-0.2-1.8,0.3l-8.4,9c-2.6-1-5.2-1.7-7.9-2.2l-1.1-11.8c-0.1-0.7-0.6-1.3-1.4-1.4
	c-8.6-0.9-17.2-0.1-25.4,2.6c-0.7,0.2-1.1,0.8-1.1,1.5l0.4,12.3c-2.5,1.1-4.9,2.5-7.2,4l-9.2-7.6c-0.6-0.5-1.4-0.5-2,0
	c-6.7,5.4-12.2,12.2-16.1,19.8c-0.3,0.6-0.2,1.4,0.3,1.8l9,8.4c-1,2.6-1.7,5.2-2.3,7.9l-11.8,1.1c-0.7,0.1-1.3,0.6-1.4,1.4
	c-1,8.6-0.1,17.2,2.6,25.4c0.2,0.7,0.8,1.1,1.5,1.1l12.3-0.4c1.1,2.5,2.5,4.9,4,7.2l-7.6,9.2c-0.5,0.6-0.5,1.4,0,2
	c5.4,6.7,12.2,12.2,19.8,16.1c0.6,0.3,1.4,0.2,1.8-0.3l8.4-9c2.6,1,5.2,1.8,7.9,2.3l1.1,11.9c0.1,0.7,0.6,1.3,1.4,1.4
	c2.2,0.2,4.4,0.4,6.7,0.4c6.4,0,12.7-1,18.8-3c0.7-0.2,1.1-0.8,1.1-1.5l-0.4-12.3c2.5-1.1,4.9-2.5,7.2-4l9.2,7.6
	c0.6,0.5,1.4,0.5,2,0c6.7-5.4,12.2-12.1,16.1-19.8c0.3-0.6,0.2-1.4-0.3-1.9l-9-8.4c1-2.6,1.8-5.2,2.3-7.9l11.8-1.1
	c0.7-0.1,1.3-0.6,1.4-1.4C719.3,140.9,718.4,132.3,715.7,124.1L715.7,124.1z M715.3,147.9l-11.8,1.1c-0.7,0.1-1.3,0.6-1.4,1.3
	c-0.6,3.2-1.5,6.4-2.7,9.4c-0.2,0.6-0.1,1.3,0.4,1.7l8.9,8.3c-3.5,6.5-8.2,12.3-13.8,17l-9.1-7.5c-0.5-0.5-1.3-0.5-1.9-0.1
	c-2.7,1.9-5.6,3.5-8.6,4.8c-0.6,0.2-1,0.8-1,1.5l0.4,12.2c-3.5,1.1-7.2,1.8-10.8,2.2c-3.6,0.4-7.3,0.4-10.9,0.1l-1.1-11.8
	c-0.1-0.7-0.6-1.3-1.3-1.4c-3.2-0.6-6.4-1.5-9.4-2.7c-0.6-0.2-1.3-0.1-1.7,0.4l-8.3,8.9c-6.5-3.5-12.3-8.2-17-13.8l7.5-9.1
	c0.5-0.5,0.5-1.3,0.1-1.9c-1.9-2.7-3.5-5.6-4.8-8.6c-0.2-0.6-0.8-1-1.5-1l-12.2,0.4c-2.1-7-2.9-14.4-2.2-21.7l11.8-1.1
	c0.7-0.1,1.3-0.6,1.4-1.3c0.6-3.2,1.5-6.4,2.7-9.4c0.2-0.6,0.1-1.3-0.4-1.7l-8.9-8.3c3.5-6.5,8.2-12.3,13.8-17l9.1,7.5
	c0.5,0.5,1.3,0.5,1.9,0.1c2.7-1.9,5.6-3.5,8.6-4.8c0.6-0.2,1-0.8,1-1.5L641.6,88c7-2.1,14.4-2.9,21.7-2.2l1.1,11.8
	c0.1,0.7,0.6,1.3,1.3,1.4c3.2,0.5,6.4,1.5,9.4,2.7c0.6,0.2,1.3,0.1,1.7-0.4l8.3-8.9c6.5,3.5,12.3,8.1,17,13.8l-7.5,9.1
	c-0.5,0.5-0.5,1.3-0.1,1.9c1.9,2.7,3.5,5.6,4.8,8.6c0.2,0.6,0.8,1,1.5,1l12.2-0.4C715.2,133.2,716,140.6,715.3,147.9L715.3,147.9z"
	/>
<path class="st0" d="M106.5,208.4c0.7-0.3,1.5-0.6,2.1-1l4.6,3.4c0.9-0.7,1.7-1.4,2.5-2.2c0.7-0.8,1.4-1.7,2-2.6l-3.8-4.3
	c0.3-0.7,0.6-1.4,0.8-2.2l5.7-0.9c0.3-2.2,0.2-4.5-0.2-6.6l-5.7-0.4c-0.3-0.7-0.6-1.5-1-2.1l3.4-4.6c-0.7-0.9-1.4-1.7-2.2-2.5
	c-0.8-0.8-1.7-1.4-2.6-2.1l-4.2,3.8c-0.7-0.3-1.4-0.6-2.2-0.8l-0.8-5.7c-2.2-0.3-4.5-0.2-6.7,0.2l-0.4,5.7c-0.7,0.3-1.5,0.6-2.1,1
	l-4.6-3.4c-0.9,0.7-1.7,1.4-2.5,2.2c-0.7,0.8-1.4,1.7-2,2.6l3.7,4.3c-0.3,0.7-0.6,1.4-0.8,2.2l-5.7,0.9c-0.3,2.2-0.2,4.5,0.2,6.6
	l5.7,0.4c0.3,0.7,0.6,1.5,1,2.1l-3.5,4.6c0.7,0.9,1.4,1.7,2.2,2.5c0.8,0.7,1.7,1.4,2.6,2l4.3-3.7c0.7,0.3,1.4,0.6,2.2,0.8l0.8,5.7
	c2.2,0.3,4.5,0.2,6.7-0.2L106.5,208.4z M97,201.4c-3.1-2.8-3.2-7.6-0.4-10.7c2.8-3.1,7.6-3.2,10.7-0.4c3.1,2.8,3.2,7.6,0.4,10.7
	c0,0,0,0,0,0C104.8,204.1,100.1,204.3,97,201.4z"/>
<path class="st1" d="M107.7,214.2l0.3-4.7l0.5-0.2l3.8,2.8c0.6,0.4,1.3,0.4,1.9,0c1-0.7,1.9-1.5,2.7-2.4c0.8-0.9,1.6-1.8,2.2-2.9
	c0.4-0.6,0.3-1.3-0.1-1.9l-3.1-3.6c0.1-0.2,0.1-0.4,0.2-0.5l4.7-0.7c0.7-0.1,1.2-0.6,1.3-1.3c0.3-2.4,0.3-4.8-0.3-7.2
	c-0.1-0.7-0.7-1.2-1.4-1.2l-4.7-0.3l-0.2-0.5l2.8-3.8c0.4-0.6,0.4-1.3,0-1.9c-0.7-1-1.5-1.9-2.4-2.7c-0.9-0.8-1.9-1.5-2.9-2.2
	c-0.6-0.4-1.3-0.3-1.9,0.1l-3.6,3.1l-0.5-0.2l-0.7-4.7c-0.1-0.7-0.6-1.2-1.3-1.3c-2.4-0.3-4.8-0.3-7.2,0.2c-0.7,0.1-1.2,0.7-1.2,1.4
	l-0.3,4.7l-0.5,0.2l-3.8-2.9c-0.6-0.4-1.3-0.4-1.9,0c-1,0.7-1.9,1.5-2.7,2.4c-0.8,0.9-1.6,1.8-2.2,2.8c-0.4,0.6-0.3,1.3,0.1,1.9
	l3.1,3.6c-0.1,0.2-0.1,0.4-0.2,0.5l-4.7,0.7c-0.7,0.1-1.2,0.7-1.3,1.4c-0.1,0.9-0.2,1.8-0.2,2.7c0,1.5,0.1,3,0.5,4.5
	c0.1,0.7,0.7,1.2,1.4,1.2l4.7,0.3l0.2,0.5l-2.8,3.8c-0.4,0.6-0.4,1.3,0,1.9c1.4,1.9,3.2,3.6,5.3,4.9c0.6,0.4,1.3,0.3,1.9-0.1
	l3.6-3.1l0.5,0.2l0.7,4.7c0.1,0.7,0.6,1.2,1.3,1.3c2.4,0.3,4.8,0.3,7.2-0.3C107.2,215.5,107.7,214.9,107.7,214.2z M100.9,212.9
	l-0.7-4.5c-0.1-0.6-0.5-1.1-1.1-1.3c-0.7-0.2-1.3-0.4-1.9-0.7c-0.6-0.3-1.2-0.2-1.7,0.2l-3.4,3c-0.5-0.4-1-0.8-1.5-1.2
	c-0.5-0.5-0.9-0.9-1.3-1.4l2.7-3.6c0.4-0.5,0.4-1.2,0.1-1.7c-0.3-0.6-0.6-1.2-0.8-1.9c-0.2-0.6-0.7-1-1.4-1l-4.5-0.3
	c-0.2-1.3-0.2-2.5-0.1-3.8l4.5-0.7c0.6-0.1,1.2-0.5,1.3-1.2c0.2-0.7,0.4-1.3,0.7-1.9c0.3-0.6,0.2-1.2-0.2-1.7l-3-3.4
	c0.4-0.5,0.8-1,1.2-1.5s0.9-0.9,1.4-1.3l3.6,2.7c0.5,0.4,1.2,0.4,1.7,0.1c0.6-0.3,1.2-0.6,1.9-0.9c0.6-0.2,1-0.8,1-1.4l0.3-4.5
	c1.3-0.2,2.5-0.2,3.8-0.1l0.7,4.5c0.1,0.6,0.5,1.1,1.1,1.3c0.7,0.2,1.3,0.4,1.9,0.7c0.6,0.3,1.2,0.2,1.7-0.2l3.4-2.9
	c0.5,0.4,1,0.8,1.5,1.2c0.5,0.4,0.9,0.9,1.3,1.4l-2.7,3.6c-0.4,0.5-0.4,1.2-0.1,1.7c0.3,0.6,0.6,1.2,0.9,1.9c0.2,0.6,0.7,1,1.4,1
	l4.5,0.3c0.2,1.3,0.2,2.5,0.1,3.8l-4.5,0.7c-0.6,0.1-1.1,0.5-1.3,1.1c-0.2,0.7-0.4,1.3-0.7,1.9c-0.3,0.6-0.2,1.2,0.2,1.7l2.9,3.4
	c-0.4,0.5-0.8,1-1.2,1.5s-0.9,0.9-1.4,1.3l-3.6-2.7c-0.5-0.4-1.2-0.4-1.7-0.1c-0.6,0.3-1.2,0.6-1.9,0.9c-0.6,0.2-1,0.8-1,1.4
	l-0.3,4.5C103.4,212.9,102.1,213,100.9,212.9z"/>
<path class="st1" d="M108.8,202.1c3.4-3.7,3.2-9.4-0.5-12.9c-3.7-3.4-9.4-3.2-12.9,0.5c-3.4,3.7-3.2,9.4,0.5,12.9
	c1.8,1.6,4.1,2.5,6.5,2.4C104.9,204.9,107.2,203.9,108.8,202.1z M98.1,200.3c-2.3-2.4-2.2-6.2,0.2-8.5c2.2-2.1,5.6-2.2,8-0.3l0,0
	c1.2,1.1,1.9,2.6,1.9,4.2v0.3c-0.1,3.3-2.8,6-6.1,5.9C100.6,201.9,99.2,201.3,98.1,200.3L98.1,200.3z"/>
<path class="st0" d="M136.8,157.5l5.1,7.8c1.8-0.5,3.5-1.2,5.2-2.1c1.7-0.8,3.2-1.8,4.7-2.9l-3.3-8.7c1-1,1.9-2,2.7-3.1l9.1,1.9
	c1.8-3.3,2.9-6.8,3.4-10.5l-8.5-3.8c0-1.4-0.1-2.7-0.3-4.1l7.8-5.1c-0.5-1.8-1.2-3.5-2.1-5.2c-0.8-1.7-1.8-3.2-2.9-4.7l-8.7,3.3
	c-1-1-2-1.9-3.1-2.7l1.9-9.2c-3.3-1.8-6.9-3-10.6-3.5l-3.8,8.5c-1.4,0-2.7,0.1-4.1,0.3l-5.1-7.8c-3.6,1.1-6.9,2.8-9.9,5l3.3,8.7
	c-1,0.9-1.9,2-2.7,3.1l-9.2-1.9c-1.8,3.3-2.9,6.9-3.4,10.6l8.5,3.8c0,1.4,0.1,2.7,0.3,4.1l-7.8,5.1c0.5,1.8,1.2,3.5,2.1,5.2
	c0.8,1.7,1.8,3.2,2.9,4.7l8.7-3.3c1,1,2,1.9,3.1,2.7l-1.9,9.1c3.3,1.8,6.8,2.9,10.5,3.4l3.8-8.5
	C134.1,157.9,135.4,157.8,136.8,157.5z M121.8,141.3c-3.1-6.2-0.7-13.8,5.5-16.9s13.8-0.7,16.9,5.5c3.1,6.2,0.7,13.8-5.5,16.9
	C132.6,150,125,147.5,121.8,141.3L121.8,141.3z"/>
<path class="st1" d="M130.3,167l3.4-7.6c0.8,0,1.6-0.1,2.3-0.2l4.6,7c0.4,0.6,1.1,0.8,1.8,0.6c1.9-0.6,3.7-1.3,5.4-2.2
	c1.7-0.9,3.4-1.9,4.9-3.1c0.6-0.4,0.8-1.2,0.5-1.8l-3-7.8c0.5-0.6,1-1.2,1.5-1.8l8.2,1.7c0.7,0.1,1.4-0.2,1.7-0.8
	c1.9-3.4,3.1-7.2,3.6-11.1c0.1-0.7-0.3-1.3-0.9-1.6l-7.6-3.4c0-0.8-0.1-1.6-0.2-2.3l7-4.6c0.6-0.4,0.8-1.1,0.6-1.8
	c-0.6-1.9-1.3-3.7-2.2-5.4c-0.9-1.8-1.9-3.4-3.1-5c-0.4-0.6-1.2-0.8-1.8-0.5l-7.8,3c-0.6-0.5-1.1-1-1.8-1.5l1.7-8.2
	c0.1-0.7-0.2-1.4-0.8-1.7c-3.4-1.9-7.2-3.1-11.1-3.6c-0.7-0.1-1.4,0.3-1.6,0.9l-3.4,7.6c-0.8,0-1.6,0.1-2.3,0.2l-4.6-7
	c-0.4-0.6-1.1-0.8-1.8-0.6c-3.7,1.1-7.3,2.9-10.4,5.3c-0.6,0.4-0.8,1.2-0.5,1.8l3,7.8c-0.5,0.6-1,1.2-1.5,1.8l-8.2-1.7
	c-0.7-0.1-1.4,0.2-1.7,0.8c-1.9,3.4-3.1,7.2-3.6,11.1c0,0.1,0,0.1,0,0.2c0,0.6,0.4,1.2,0.9,1.4l7.6,3.4c0,0.8,0.1,1.6,0.2,2.3
	l-7,4.6c-0.6,0.4-0.8,1.1-0.6,1.8c1.1,3.7,2.9,7.3,5.3,10.4c0.4,0.5,1.2,0.8,1.8,0.5l7.8-3c0.6,0.5,1.2,1,1.8,1.5l-1.7,8.2
	c-0.1,0.7,0.2,1.4,0.8,1.7c3.4,1.9,7.2,3.1,11.1,3.6C129.3,168,130,167.6,130.3,167z M120.1,162.1l1.7-8c0.1-0.6-0.1-1.2-0.6-1.6
	c-1-0.7-2-1.6-2.9-2.5c-0.4-0.4-1.1-0.6-1.7-0.4l-7.6,2.9c-0.8-1.1-1.5-2.3-2.1-3.5c-0.6-1.2-1.2-2.5-1.6-3.8l6.8-4.5
	c0.5-0.3,0.8-1,0.7-1.6c-0.2-1.3-0.3-2.5-0.3-3.8l0,0c0-0.6-0.4-1.2-0.9-1.4l-7.4-3.3c0.5-2.7,1.3-5.4,2.6-7.8l8,1.7
	c0.6,0.1,1.2-0.1,1.6-0.6c0.7-1,1.6-2,2.5-2.9c0.5-0.4,0.6-1.1,0.4-1.7l-2.9-7.6c2.3-1.6,4.7-2.8,7.4-3.7l4.5,6.8
	c0.3,0.5,1,0.8,1.6,0.7c1.3-0.2,2.5-0.3,3.8-0.3c0.6,0,1.2-0.3,1.5-0.9l3.3-7.4c2.7,0.5,5.4,1.3,7.8,2.6l-1.6,8
	c-0.1,0.6,0.1,1.2,0.6,1.6c1,0.7,2,1.6,2.9,2.5c0.4,0.4,1.1,0.6,1.7,0.4l7.6-2.9c0.8,1.1,1.5,2.3,2.1,3.5c0.6,1.2,1.2,2.5,1.6,3.8
	l-6.8,4.5c-0.5,0.3-0.8,1-0.7,1.6c0.2,1.3,0.3,2.5,0.3,3.8l0,0c0,0.6,0.4,1.2,0.9,1.4l7.4,3.3c-0.5,2.7-1.4,5.4-2.6,7.8l-8-1.6
	c-0.6-0.1-1.2,0.1-1.6,0.6c-0.7,1-1.6,2-2.5,2.9c-0.4,0.4-0.6,1.1-0.4,1.7l2.9,7.6c-2.3,1.6-4.7,2.8-7.4,3.7l-4.5-6.8
	c-0.3-0.5-1-0.8-1.6-0.7c-1.3,0.2-2.5,0.3-3.8,0.3c-0.6,0-1.2,0.3-1.4,0.9l-3.3,7.4C125.2,164.1,122.6,163.3,120.1,162.1
	L120.1,162.1z"/>
<path class="st1" d="M145.7,129.3c-3.5-7-12-9.8-19-6.2c-7,3.5-9.8,12-6.2,19c3.5,7,12,9.8,19,6.2c0,0,0,0,0,0
	c6.9-3.4,9.8-11.8,6.3-18.8C145.8,129.4,145.7,129.3,145.7,129.3z M123.2,140.6c-0.8-1.6-1.2-3.3-1.2-5.1c0.1-6.1,5-10.9,11.1-10.9
	c6.1,0.1,10.9,5,10.9,11.1c-0.1,6.1-5,10.9-11.1,10.9C128.8,146.6,125.1,144.3,123.2,140.6z"/>
<path class="st0" d="M604.4,61.2l9.1-6.8c-1.5-4.2-3.8-8.2-6.8-11.6l-10.3,4.6c-1.2-1.1-2.6-2.1-4-3l1.6-11.2
	c-4.1-1.9-8.5-3.1-13-3.4l-4,10.5c-1.7,0.1-3.3,0.3-4.9,0.7l-6.8-9.1c-4.2,1.5-8.2,3.8-11.6,6.8l4.7,10.3c-1.1,1.2-2.1,2.6-3,4
	l-11.2-1.6c-1.9,4.1-3.1,8.5-3.4,13l10.5,4c0.1,1.7,0.3,3.3,0.7,4.9L543,80c1.5,4.2,3.8,8.2,6.8,11.6L560,87c1.2,1.1,2.6,2.1,4,3
	l-1.6,11.2c4.1,1.9,8.5,3.1,13,3.4l4-10.5c1.7-0.1,3.3-0.3,4.9-0.7l6.8,9.1c2.1-0.8,4.2-1.7,6.1-2.9c1.9-1.1,3.8-2.4,5.5-3.9
	L598,85.4c1.1-1.2,2.1-2.6,3-4l11.2,1.6c1.9-4.1,3.1-8.5,3.4-13l-10.5-4C605,64.4,604.8,62.8,604.4,61.2z M585.9,80.4
	c-7.3,4.2-16.6,1.8-20.8-5.5c-4.2-7.3-1.8-16.6,5.5-20.8c7.3-4.2,16.6-1.8,20.8,5.5C595.6,66.8,593.2,76.1,585.9,80.4z"/>
<path class="st1" d="M616.2,68.7l-9.6-3.7c-0.1-1.1-0.2-2.1-0.4-3.2l8.3-6.2c0.5-0.4,0.8-1.1,0.5-1.8c-1.6-4.4-4-8.5-7-12.1
	c-0.4-0.5-1.2-0.7-1.8-0.4l-9.4,4.2c-0.8-0.7-1.7-1.3-2.5-1.9l1.5-10.2c0.1-0.7-0.3-1.3-0.9-1.6c-4.3-2-8.8-3.2-13.5-3.6
	c-0.7-0.1-1.3,0.3-1.6,1l-3.6,9.6c-1.1,0.1-2.1,0.2-3.2,0.4l-6.2-8.3c-0.4-0.6-1.1-0.8-1.8-0.5c-2.2,0.8-4.3,1.8-6.4,3
	c-2,1.2-3.9,2.5-5.7,4c-0.5,0.5-0.7,1.2-0.4,1.8l4.2,9.4c-0.7,0.8-1.3,1.7-1.9,2.5l-10.2-1.5c-0.7-0.1-1.3,0.3-1.6,0.9
	c-2,4.3-3.2,8.8-3.6,13.5c-0.1,0.7,0.3,1.3,1,1.6l9.6,3.6c0.1,1.1,0.2,2.1,0.4,3.2l-8.3,6.2c-0.6,0.4-0.8,1.1-0.5,1.8
	c1.6,4.4,4,8.5,7,12.1c0.5,0.5,1.2,0.7,1.8,0.4l9.4-4.2c0.8,0.7,1.7,1.3,2.5,1.9l-1.4,10.2c-0.1,0.7,0.3,1.3,0.9,1.6
	c4.3,2,8.8,3.2,13.5,3.6h0.1c0.6,0,1.2-0.4,1.5-1l3.6-9.6c1.1-0.1,2.1-0.2,3.2-0.4l6.2,8.3c0.4,0.6,1.1,0.8,1.8,0.5
	c4.4-1.6,8.5-4,12.1-7c0.5-0.4,0.7-1.2,0.4-1.8l-4.2-9.4c0.7-0.8,1.3-1.7,1.9-2.6l10.2,1.4c0.7,0.1,1.3-0.3,1.6-0.9
	c2-4.3,3.2-8.8,3.6-13.5C617.3,69.5,616.8,68.9,616.2,68.7z M611.3,81.4l-10-1.5c-0.6-0.1-1.2,0.2-1.5,0.7c-0.8,1.3-1.8,2.6-2.8,3.7
	c-0.4,0.5-0.5,1.1-0.3,1.7l4.1,9.2c-1.4,1.1-2.8,2.1-4.4,3c-1.5,0.9-3.1,1.7-4.8,2.3l-6.1-8.1c-0.4-0.5-1-0.7-1.6-0.6
	c-1.5,0.4-3.1,0.6-4.6,0.6c-0.6,0-1.2,0.4-1.4,1l-3.6,9.5c-3.5-0.4-7-1.3-10.2-2.7l1.5-10c0.1-0.6-0.2-1.2-0.7-1.6
	c-1.3-0.8-2.6-1.8-3.7-2.8c-0.5-0.4-1.1-0.5-1.7-0.3l-9.2,4.1c-1.1-1.4-2.1-2.8-3-4.4c-0.9-1.5-1.7-3.1-2.3-4.8l8.2-6.1
	c0.5-0.4,0.7-1,0.6-1.6c-0.3-1.5-0.6-3.1-0.6-4.7c0-0.6-0.4-1.2-1-1.4l-9.4-3.6c0.4-3.5,1.3-7,2.7-10.3l10,1.5
	c0.6,0.1,1.2-0.2,1.5-0.7c0.8-1.3,1.8-2.6,2.8-3.7c0.4-0.5,0.5-1.1,0.3-1.7l-4.1-9.2c1.4-1.1,2.8-2.1,4.4-3c1.5-0.9,3.1-1.7,4.8-2.3
	L571,42c0.4,0.5,1,0.7,1.6,0.6c1.5-0.4,3.1-0.6,4.6-0.6c0.6,0,1.2-0.4,1.4-1l3.6-9.4c3.5,0.4,7,1.3,10.2,2.7l-1.5,10
	c-0.1,0.6,0.2,1.2,0.7,1.5c1.3,0.8,2.6,1.8,3.7,2.8c0.5,0.4,1.1,0.5,1.7,0.3l9.2-4.1c1.1,1.4,2.1,2.8,3,4.4c0.9,1.5,1.7,3.1,2.3,4.8
	l-8.1,6.1c-0.5,0.4-0.7,1-0.6,1.6c0.3,1.5,0.6,3.1,0.6,4.6c0,0.6,0.4,1.2,1,1.4l9.4,3.6C613.6,74.7,612.7,78.1,611.3,81.4z"/>
<path class="st1" d="M569.8,52.7L569.8,52.7c-8,4.7-10.7,15-6,23c4.7,8,15,10.7,23,6c8-4.7,10.7-15,6-23c-4.6-8-14.8-10.7-22.8-6.1
	C569.9,52.6,569.9,52.7,569.8,52.7z M585.1,79.1c-6.5,3.8-14.9,1.6-18.7-4.9c-3.8-6.5-1.6-14.9,4.9-18.7c0,0,0,0,0,0l0,0
	c6.7-3.4,15-0.7,18.4,6C592.9,67.6,590.9,75.2,585.1,79.1L585.1,79.1z"/>
<circle class="st2" cx="658.3" cy="142.8" r="26.3"/>
<path class="st1" d="M658.3,114.9c-15.4,0-27.9,12.5-27.9,27.9s12.5,27.9,27.9,27.9s27.9-12.5,27.9-27.9c0,0,0,0,0,0
	C686.1,127.4,673.6,114.9,658.3,114.9z M658.3,167.6c-13.7,0-24.8-11.1-24.8-24.7c0-13.7,11.1-24.8,24.7-24.8
	c13.7,0,24.8,11.1,24.8,24.7c0,0,0,0,0,0C683,156.4,671.9,167.5,658.3,167.6z"/>
<path class="st0" d="M146.2,277.5l-13.4,0.5c-1.3-3.1-3-6.1-4.9-8.9l8.3-10.1c-5.2-6.6-11.8-11.9-19.3-15.7l-9.1,9.8
	c-3.1-1.3-6.4-2.2-9.8-2.8l-1.2-13c-8.3-0.9-16.8,0-24.8,2.6l0.5,13.4c-3.1,1.3-6.1,3-8.9,4.9l-10.1-8.3
	c-6.6,5.2-11.9,11.8-15.7,19.3l9.8,9.1c-1.3,3.1-2.2,6.4-2.8,9.8l-13,1.2c-0.9,8.3-0.1,16.8,2.5,24.8l13.4-0.5
	c1.3,3.1,3,6.1,4.9,8.9l-8.4,10.1c5.2,6.5,11.8,11.9,19.3,15.7l9.2-9.8c3.1,1.3,6.4,2.2,9.8,2.8l1.2,13c8.3,0.9,16.8,0.1,24.8-2.5
	l-0.5-13.4c3.1-1.3,6.1-3,8.9-4.9l10.1,8.4c6.6-5.2,11.9-11.8,15.7-19.3l-9.8-9.1c1.3-3.1,2.2-6.4,2.8-9.8l13-1.2
	C149.6,294,148.8,285.5,146.2,277.5L146.2,277.5z M92.1,313.7c-9.9,1-18.7-6.2-19.7-16.1c-1-9.9,6.2-18.7,16.1-19.7
	s18.7,6.2,19.7,16.1c0,0,0,0,0,0.1C109.1,303.9,102,312.7,92.1,313.7z"/>
<path class="st1" d="M88.3,276.3c-10.7,1.1-18.6,10.7-17.5,21.4c1.1,10.7,10.7,18.6,21.4,17.5c10.7-1.1,18.6-10.7,17.5-21.4
	C108.6,283.1,99,275.3,88.3,276.3z M103,306.2c-5.7,7-16.1,8.1-23.1,2.4s-8.1-16.1-2.4-23.1c5.7-7,16.1-8.1,23.1-2.4
	c3.4,2.8,5.5,6.7,6,11.1C107.1,298.5,105.8,302.8,103,306.2z"/>
<path class="st1" d="M147.7,277c-0.2-0.7-0.8-1.1-1.5-1.1l-12.3,0.4c-1.1-2.5-2.5-4.9-4-7.2l7.6-9.2c0.5-0.6,0.5-1.4,0-2
	c-5.4-6.7-12.2-12.2-19.8-16.1c-0.6-0.3-1.4-0.2-1.8,0.3l-8.4,9c-2.6-1-5.2-1.7-7.9-2.2l-1.1-11.9c-0.1-0.7-0.6-1.3-1.4-1.4
	c-8.6-0.9-17.2-0.1-25.4,2.6c-0.7,0.2-1.1,0.8-1.1,1.5l0.4,12.3c-2.5,1.1-4.9,2.5-7.2,4l-9.2-7.6c-0.6-0.5-1.4-0.5-2,0
	c-6.7,5.4-12.2,12.1-16.1,19.8c-0.3,0.6-0.2,1.4,0.3,1.9l9,8.4c-1,2.6-1.7,5.2-2.3,7.9l-11.9,1.1c-0.7,0.1-1.3,0.6-1.4,1.4
	c-1,8.6-0.1,17.2,2.6,25.4c0.2,0.7,0.8,1.1,1.5,1.1l12.3-0.4c1.1,2.5,2.5,4.9,4,7.2l-7.6,9.2c-0.5,0.6-0.5,1.4,0,2
	c5.4,6.7,12.1,12.2,19.8,16.1c0.6,0.3,1.4,0.2,1.8-0.3l8.4-9c2.6,1,5.2,1.8,7.9,2.3l1.1,11.9c0.1,0.7,0.6,1.3,1.4,1.4
	c2.2,0.2,4.4,0.4,6.7,0.4c6.4,0,12.7-1,18.8-3c0.7-0.2,1.1-0.8,1.1-1.5l-0.4-12.3c2.5-1.1,4.9-2.5,7.2-4l9.2,7.6
	c0.6,0.5,1.4,0.5,2,0c6.7-5.4,12.2-12.1,16.1-19.8c0.3-0.6,0.2-1.4-0.3-1.9l-9-8.4c1-2.6,1.8-5.2,2.3-7.9l11.9-1.1
	c0.7-0.1,1.3-0.6,1.4-1.4C151.3,293.9,150.4,285.3,147.7,277L147.7,277z M147.3,300.9l-11.8,1.1c-0.7,0.1-1.3,0.6-1.4,1.3
	c-0.6,3.2-1.5,6.4-2.7,9.4c-0.2,0.6-0.1,1.3,0.4,1.7l8.9,8.3c-3.5,6.5-8.2,12.3-13.8,17l-9.1-7.5c-0.5-0.5-1.3-0.5-1.9-0.1
	c-2.7,1.9-5.6,3.5-8.6,4.8c-0.6,0.2-1,0.8-1,1.5l0.4,12.2c-3.5,1.1-7.2,1.8-10.8,2.2c-3.6,0.4-7.3,0.4-10.9,0.1L84,341.2
	c-0.1-0.7-0.6-1.3-1.3-1.4c-3.2-0.6-6.4-1.5-9.4-2.8c-0.6-0.2-1.3-0.1-1.7,0.4l-8.3,8.9c-6.5-3.5-12.3-8.2-17-13.8l7.5-9.1
	c0.5-0.5,0.5-1.3,0.1-1.9c-1.9-2.7-3.5-5.5-4.7-8.6c-0.2-0.6-0.8-1-1.5-1l-12.2,0.4c-2.1-7-2.9-14.4-2.2-21.7l11.8-1.1
	c0.7-0.1,1.3-0.6,1.4-1.3c0.5-3.2,1.4-6.4,2.7-9.4c0.2-0.6,0.1-1.3-0.4-1.7l-8.9-8.3c3.5-6.5,8.2-12.3,13.8-17l9.1,7.5
	c0.5,0.5,1.3,0.5,1.9,0.1c2.7-1.9,5.6-3.5,8.6-4.8c0.6-0.2,1-0.8,1-1.5L73.6,241c7-2.1,14.4-2.9,21.7-2.2l1.1,11.8
	c0.1,0.7,0.6,1.3,1.3,1.4c3.2,0.5,6.4,1.5,9.4,2.7c0.6,0.2,1.3,0.1,1.7-0.4l8.3-8.9c6.5,3.5,12.3,8.1,17,13.8l-7.5,9.1
	c-0.5,0.5-0.5,1.3-0.1,1.9c1.9,2.7,3.5,5.6,4.8,8.6c0.2,0.6,0.8,1,1.5,1l12.2-0.4C147.2,286.2,148,293.6,147.3,300.9L147.3,300.9z"
	/>
<circle class="st2" cx="90.3" cy="295.8" r="26.3"/>
<path class="st1" d="M90.3,267.9c-15.4,0-27.9,12.5-27.9,27.9s12.5,27.9,27.9,27.9s27.9-12.5,27.9-27.9c0,0,0,0,0,0
	C118.1,280.4,105.6,267.9,90.3,267.9z M90.3,320.6c-13.7,0-24.8-11.1-24.8-24.7S76.5,271,90.2,271s24.8,11.1,24.8,24.7c0,0,0,0,0,0
	C115,309.4,103.9,320.5,90.3,320.6L90.3,320.6z"/>
<path class="st1" d="M319.3,69.5c-18.3,0-33.1,14.8-33.1,33.1s14.8,33.1,33.1,33.1c18.3,0,33.1-14.8,33.1-33.1c0,0,0,0,0,0
	C352.4,84.4,337.6,69.6,319.3,69.5z M319.3,132.5c-16.6,0-30-13.4-30-30s13.4-30,30-30s30,13.4,30,30
	C349.3,119.1,335.9,132.6,319.3,132.5C319.3,132.6,319.3,132.6,319.3,132.5L319.3,132.5z"/>
<path class="st1" d="M457.5,102.2c-26.6,0-48.2,21.6-48.2,48.2c0,26.6,21.6,48.2,48.2,48.2c26.6,0,48.2-21.6,48.2-48.2
	c0-12.8-5.1-25-14.1-34.1C482.6,107.2,470.3,102.1,457.5,102.2z M489.4,182.2c-17.6,17.6-46.1,17.6-63.7,0
	c-17.6-17.6-17.6-46.1,0-63.7c17.6-17.6,46.1-17.6,63.7,0c8.5,8.5,13.2,19.9,13.2,31.9C502.6,162.3,497.9,173.8,489.4,182.2
	L489.4,182.2z"/>
<path class="st1" d="M457.5,97.8c-29.1,0-52.6,23.5-52.6,52.6s23.5,52.6,52.6,52.6c29.1,0,52.6-23.5,52.6-52.6
	c0-14-5.5-27.3-15.4-37.2C484.8,103.3,471.5,97.7,457.5,97.8z M492.5,185.4c-19.3,19.3-50.7,19.3-70,0c-19.3-19.3-19.3-50.7,0-70
	c19.3-19.3,50.7-19.3,70,0c9.3,9.3,14.5,21.9,14.5,35C507,163.5,501.8,176.1,492.5,185.4L492.5,185.4z"/>
<path class="st0" d="M712.5,259.5h-10.7c-0.5-1.9-1.3-3.7-2.2-5.4l7.5-7.5c1.8-1.8,1.8-4.7,0-6.5c0,0,0,0,0,0l-4.2-4.2
	c-1.8-1.8-4.7-1.8-6.5,0l-7.5,7.5c-1.7-0.9-3.5-1.7-5.4-2.2v-10.7c0-2.6-2.1-4.6-4.6-4.6l0,0h-6c-2.6,0-4.6,2.1-4.6,4.6c0,0,0,0,0,0
	v10.7c-1.9,0.5-3.7,1.3-5.4,2.2l-7.5-7.5c-1.8-1.8-4.7-1.8-6.5,0l-4.3,4.2c-1.8,1.8-1.8,4.7,0,6.5l7.5,7.5c-0.9,1.7-1.7,3.6-2.2,5.4
	h-10.7c-2.6,0-4.6,2.1-4.6,4.6v6c0,2.6,2.1,4.6,4.6,4.6h10.7c0.5,1.9,1.3,3.7,2.2,5.4l-7.5,7.5c-1.8,1.8-1.8,4.7,0,6.5l4.2,4.2
	c1.8,1.8,4.7,1.8,6.5,0l7.5-7.5c1.7,0.9,3.6,1.7,5.4,2.2v10.7c0,2.6,2.1,4.6,4.6,4.6c0,0,0,0,0,0h6c2.6,0,4.6-2.1,4.6-4.6l0,0v-10.6
	c1.9-0.5,3.7-1.3,5.4-2.2l7.5,7.5c1.8,1.8,4.7,1.8,6.5,0l4.2-4.2c1.8-1.8,1.8-4.7,0-6.5c0,0,0,0,0,0l-7.5-7.5
	c0.9-1.7,1.7-3.5,2.2-5.4h10.7c2.6,0,4.6-2.1,4.6-4.6l0,0v-6C717.1,261.6,715,259.5,712.5,259.5
	C712.5,259.5,712.5,259.5,712.5,259.5z M675.7,280.2c-7.1,0-12.9-5.8-12.9-12.9s5.8-12.9,12.9-12.9s12.9,5.8,12.9,12.9l0,0
	C688.6,274.4,682.8,280.2,675.7,280.2C675.7,280.2,675.7,280.2,675.7,280.2z"/>
<path class="st1" d="M712.5,258h-9.5c-0.4-1.2-0.9-2.4-1.5-3.6l6.7-6.7c2.4-2.4,2.4-6.3,0-8.8l-4.2-4.2c-2.4-2.4-6.3-2.4-8.8,0
	l-6.7,6.7c-1.2-0.6-2.3-1.1-3.6-1.5v-9.5c0-3.4-2.8-6.2-6.2-6.2h-6c-3.4,0-6.2,2.8-6.2,6.2v9.5c-1.2,0.4-2.4,0.9-3.6,1.5l-6.7-6.7
	c-2.4-2.4-6.3-2.4-8.8,0l-4.2,4.2c-2.4,2.4-2.4,6.3,0,8.8l6.7,6.7c-0.6,1.2-1.1,2.4-1.5,3.6h-9.5c-3.4,0-6.2,2.8-6.2,6.2v6
	c0,3.4,2.8,6.2,6.2,6.2h9.5c0.4,1.2,0.9,2.4,1.5,3.6l-6.7,6.7c-2.4,2.4-2.4,6.3,0,8.8l4.2,4.2c2.4,2.4,6.3,2.4,8.8,0l6.7-6.7
	c1.2,0.6,2.4,1.1,3.6,1.5v9.5c0,3.4,2.8,6.2,6.2,6.2h6c3.4,0,6.2-2.8,6.2-6.2v-9.5c1.2-0.4,2.4-0.9,3.6-1.5l6.7,6.7
	c2.4,2.4,6.3,2.4,8.8,0l4.2-4.2c2.4-2.4,2.4-6.3,0-8.8l-6.7-6.7c0.6-1.2,1.1-2.3,1.5-3.6h9.5c3.4,0,6.2-2.8,6.2-6.2v-6
	C718.6,260.8,715.9,258,712.5,258z M715.5,270.2c0,1.7-1.4,3.1-3.1,3.1h-10.7c-0.7,0-1.3,0.5-1.5,1.1c-0.5,1.8-1.2,3.5-2.1,5.1
	c-0.3,0.6-0.2,1.4,0.3,1.9l7.5,7.5c1.2,1.2,1.2,3.1,0,4.3l-4.2,4.2c-1.2,1.2-3.1,1.2-4.3,0l-7.5-7.5c-0.5-0.5-1.2-0.6-1.8-0.3
	c-1.6,0.9-3.3,1.6-5.1,2.1c-0.7,0.2-1.1,0.8-1.1,1.5v10.7c0,1.7-1.4,3.1-3.1,3.1h-6c-1.7,0-3.1-1.4-3.1-3.1v-10.7
	c0-0.7-0.5-1.3-1.1-1.5c-1.8-0.5-3.5-1.2-5.1-2.1c-0.2-0.1-0.5-0.2-0.8-0.2c-0.4,0-0.8,0.2-1.1,0.5l-7.5,7.5c-1.2,1.2-3.1,1.2-4.3,0
	l-4.2-4.2c-1.2-1.2-1.2-3.1,0-4.3l7.5-7.5c0.5-0.5,0.6-1.2,0.3-1.9c-0.9-1.6-1.6-3.3-2.1-5.1c-0.2-0.7-0.8-1.1-1.5-1.1h-10.7
	c-1.7,0-3.1-1.4-3.1-3.1v-6c0-1.7,1.4-3.1,3.1-3.1h10.7c0.7,0,1.3-0.5,1.5-1.1c0.5-1.8,1.2-3.5,2.1-5.1c0.3-0.6,0.2-1.4-0.3-1.9
	l-7.5-7.5c-1.2-1.2-1.2-3.1,0-4.3l4.2-4.2c1.2-1.2,3.1-1.2,4.3,0l7.5,7.5c0.5,0.5,1.3,0.6,1.9,0.3c1.6-0.9,3.3-1.6,5.1-2.1
	c0.7-0.2,1.1-0.8,1.1-1.5v-10.7c0-1.7,1.4-3.1,3.1-3.1h6c1.7,0,3.1,1.4,3.1,3.1v10.7c0,0.7,0.5,1.3,1.1,1.5c1.8,0.5,3.5,1.2,5.1,2.1
	c0.6,0.3,1.4,0.2,1.8-0.3l7.5-7.5c1.2-1.2,3.1-1.2,4.3,0l4.2,4.2c1.2,1.2,1.2,3.1,0,4.3l-7.5,7.5c-0.5,0.5-0.6,1.2-0.3,1.9
	c0.9,1.6,1.6,3.3,2.1,5.1c0.2,0.7,0.8,1.1,1.5,1.1h10.7c1.7,0,3.1,1.4,3.1,3.1L715.5,270.2z"/>
<path class="st1" d="M675.7,252.8c-8,0-14.5,6.5-14.5,14.5s6.5,14.5,14.5,14.5c8,0,14.5-6.5,14.5-14.5c0,0,0,0,0,0
	C690.2,259.3,683.7,252.8,675.7,252.8z M675.7,278.6c-6.3,0-11.4-5.1-11.4-11.4s5.1-11.4,11.4-11.4c6.3,0,11.4,5.1,11.4,11.4l0,0
	C687.1,273.5,682,278.6,675.7,278.6z"/>
<path class="st0" d="M675.7,249.2c-9.9,0-18,8.1-18,18s8.1,18,18,18s18-8.1,18-18S685.6,249.2,675.7,249.2z M675.7,274.9
	c-4.2,0-7.7-3.4-7.7-7.7c0-4.2,3.4-7.7,7.7-7.7c4.2,0,7.7,3.4,7.7,7.7c0,0,0,0,0,0C683.3,271.5,679.9,274.9,675.7,274.9z"/>
<path class="st1" d="M675.7,247.6c-10.8,0-19.6,8.7-19.6,19.5c0,10.8,8.7,19.6,19.5,19.6c10.8,0,19.6-8.7,19.6-19.5c0,0,0,0,0,0
	C695.2,256.4,686.5,247.6,675.7,247.6z M675.7,283.6c-9.1,0-16.4-7.3-16.4-16.4c0-9.1,7.3-16.4,16.4-16.4c9.1,0,16.4,7.3,16.4,16.4
	c0,0,0,0,0,0C692.1,276.2,684.7,283.6,675.7,283.6L675.7,283.6z"/>
<path class="st1" d="M675.7,258c-5.1,0-9.2,4.1-9.2,9.2c0,5.1,4.1,9.2,9.2,9.2c5.1,0,9.2-4.1,9.2-9.2c0,0,0,0,0,0
	C684.9,262.1,680.8,258,675.7,258z M675.7,273.3c-3.4,0-6.1-2.7-6.1-6.1c0-3.4,2.7-6.1,6.1-6.1c3.4,0,6.1,2.7,6.1,6.1c0,0,0,0,0,0
	C681.8,270.6,679.1,273.4,675.7,273.3C675.7,273.4,675.7,273.4,675.7,273.3L675.7,273.3z"/>
<path class="st0" d="M139.8,147h492.9c7.6,0,13.7,6.1,13.7,13.7c0,0,0,0,0,0v339.1l0,0H126.1l0,0V160.7
	C126.1,153.1,132.3,147,139.8,147L139.8,147z"/>
<path class="st1" d="M646.5,500.9H126.1c-0.6,0-1-0.4-1-1V160.7c0-8.1,6.6-14.7,14.7-14.7h492.9c8.1,0,14.7,6.6,14.7,14.7v339.1
	C647.5,500.4,647,500.9,646.5,500.9z M127.1,498.9h518.3V160.7c0-7-5.7-12.7-12.7-12.7H139.8c-7,0-12.7,5.7-12.7,12.7L127.1,498.9z"
	/>
<rect x="149.8" y="170.6" class="st2" width="473.8" height="307"/>
<path class="st1" d="M623.6,478.7H149.8c-0.6,0-1-0.4-1-1v-307c0-0.6,0.4-1,1-1h473.8c0.6,0,1,0.4,1,1v307
	C624.6,478.2,624.1,478.7,623.6,478.7z M150.8,476.7h471.8v-305H150.8V476.7z"/>
<rect x="61" y="499.9" class="st0" width="650.6" height="25.1"/>
<path class="st1" d="M711.6,525.9H61c-0.6,0-1-0.4-1-1v-25c0-0.6,0.4-1,1-1h650.6c0.6,0,1,0.4,1,1v25
	C712.6,525.5,712.1,525.9,711.6,525.9z M62,523.9h648.6v-23H62V523.9z"/>
<path class="st0" d="M93.9,539.2h586.8c7.9,0,30.9-6.4,30.9-14.3H61C61,532.8,86,539.2,93.9,539.2z"/>
<path class="st1" d="M680.7,540.2H93.9c-8.2,0-33.9-6.4-33.9-15.3c0-0.6,0.4-1,1-1h650.6c0.6,0,1,0.4,1,1
	C712.6,533.9,688.4,540.2,680.7,540.2z M62.2,525.9c2.1,6.3,23.7,12.3,31.8,12.3h586.8c7.7,0,27.8-5.9,29.7-12.3H62.2z"/>
<rect x="646.3" y="459" class="st1" width="6" height="2"/>
<path class="st1" d="M730.4,461h-11.7v-2h11.7V461z M714.8,461h-11.7v-2h11.7V461z M699.2,461h-11.7v-2h11.7V461z M683.5,461h-11.7
	v-2h11.7V461z M667.9,461h-11.7v-2h11.7V461z"/>
<path class="st1" d="M740.3,461h-6v-2h5v-5h2v6C741.3,460.6,740.9,461,740.3,461z"/>
<path class="st1" d="M741.3,450h-2v-12.1h2V450z M741.3,433.9h-2v-12.1h2V433.9z M741.3,417.9h-2v-12h2V417.9z M741.3,401.8h-2v-12
	h2V401.8z M741.3,385.8h-2v-12h2V385.8z M741.3,369.7h-2v-12.1h2V369.7z M741.3,353.7h-2v-12.1h2V353.7z M741.3,337.6h-2v-12h2
	V337.6z M741.3,321.5h-2v-12h2V321.5z M741.3,305.5h-2v-12h2V305.5z M741.3,289.5h-2v-12.1h2V289.5z M741.3,273.4h-2v-12.1h2V273.4z
	 M741.3,257.4h-2v-12h2V257.4z M741.3,241.3h-2v-12h2V241.3z M741.3,225.2h-2v-12h2V225.2z M741.3,209.2h-2v-12.2h2V209.2z
	 M741.3,193.2h-2V181h2V193.2z"/>
<rect x="739.3" y="171" class="st1" width="2" height="6"/>
<rect x="120.3" y="451" class="st1" width="6" height="2"/>
<path class="st1" d="M116.6,453h-11.2v-2h11.2V453z M101.7,453H90.5v-2h11.2L101.7,453z M86.8,453H75.7v-2h11.2L86.8,453z M71.9,453
	H60.8v-2h11.2L71.9,453z M57.1,453H45.9v-2h11.2L57.1,453z M42.2,453H31v-2h11.2L42.2,453z"/>
<path class="st1" d="M22.3,458h-2v-6c0-0.6,0.4-1,1-1h6v2h-5V458z"/>
<path class="st1" d="M22.3,559.8h-2V547h2V559.8z M22.3,542.8h-2v-12.7h2V542.8z M22.3,525.8h-2v-12.6h2V525.8z M22.3,508.8h-2
	v-12.6h2V508.8z M22.3,491.8h-2v-12.6h2V491.8z M22.3,474.8h-2v-12.5h2V474.8z"/>
<path class="st1" d="M27.3,571h-6c-0.6,0-1-0.4-1-1v-6h2v5h5V571z"/>
<path class="st1" d="M292.4,571h-11.7v-2h11.7L292.4,571z M276.8,571h-11.7v-2h11.7V571z M261.2,571h-11.7v-2h11.7V571z M245.6,571
	h-11.7v-2h11.7L245.6,571z M230,571h-11.7v-2H230V571z M214.4,571h-11.7v-2h11.7V571z M198.8,571h-11.7v-2h11.7L198.8,571z
	 M183.2,571h-11.7v-2h11.7V571z M167.6,571H156v-2h11.7L167.6,571z M152,571h-11.7v-2H152V571z M136.4,571h-11.7v-2h11.7L136.4,571z
	 M120.8,571h-11.7v-2h11.7L120.8,571z M105.2,571H93.6v-2h11.7L105.2,571z M89.7,571H78v-2h11.7L89.7,571z M74.1,571H62.4v-2h11.7
	L74.1,571z M58.5,571H46.8v-2h11.7L58.5,571z M42.9,571H31.2v-2h11.7L42.9,571z"/>
<rect x="296.3" y="569" class="st1" width="6" height="2"/>
<circle class="st0" cx="740.3" cy="171" r="15"/>
<path class="st1" d="M740.3,187c-8.8,0-16-7.2-16-16s7.2-16,16-16s16,7.2,16,16S749.1,187,740.3,187z M740.3,157
	c-7.7,0-14,6.3-14,14s6.3,14,14,14s14-6.3,14-14S748,157,740.3,157z"/>
<g>
	<circle class="st1" cx="300.1" cy="264.3" r="46.7"/>
	<circle class="st1" cx="474.1" cy="264.3" r="46.7"/>
</g>
<path class="st1" d="M441.6,423.5h-13.3c0-22.7-18.5-41.1-41.1-41.1c-22.7,0-41.1,18.5-41.1,41.1h-13.3c0-30,24.4-54.5,54.5-54.5
	C417.2,369,441.6,393.4,441.6,423.5z"/>
<g>
	<path class="st1" d="M200.2,199.5h-29.9c-2.8,0-5.1-2.3-5.1-5.1l0,0c0-2.8,2.3-5.1,5.1-5.1h29.9c2.8,0,5.1,2.3,5.1,5.1l0,0
		C205.4,197.2,203.1,199.5,200.2,199.5z"/>
</g>
<g>
	<path class="st1" d="M240.5,199.5h-17.7c-2.8,0-5.1-2.3-5.1-5.1l0,0c0-2.8,2.3-5.1,5.1-5.1h17.7c2.8,0,5.1,2.3,5.1,5.1l0,0
		C245.6,197.2,243.3,199.5,240.5,199.5z"/>
</g>
</svg>
